<svg width="242" height="394" viewBox="0 0 242 394" fill="none" xmlns="http://www.w3.org/2000/svg">
<path d="M3.84121 167.092L69.1359 121.553L157.458 68.7572L156.582 3.27052L3.7258 98.6503L3.84121 167.092Z" fill="url(#paint0_linear_3_3)" stroke="#011929" stroke-width="6" stroke-linejoin="round"/>
<path d="M182.531 353.076L105.873 326.45" stroke="black" stroke-width="5.66929"/>
<path d="M231.067 93.2411L154.409 66.6146" stroke="black" stroke-width="5.66929"/>
<path d="M238.686 191.535L61.1359 131.553" stroke="black" stroke-width="5.66929"/>
<path opacity="0.9" d="M238.686 123.153L184.1 159.09L185.049 227.472L238.686 191.535V123.153Z" fill="url(#paint1_linear_3_3)" stroke="#011929" stroke-width="6" stroke-linejoin="round"/>
<path d="M45.7339 364.33L105.873 326.45L106.75 264.894L162.024 226.881L162.028 164.908L45.7339 242.929V364.33Z" fill="url(#paint2_linear_3_3)" stroke="#011929" stroke-width="6" stroke-linejoin="round"/>
<path opacity="0.95" d="M3.7258 98.6501L156.582 3.27052L231.16 27.6784L129.513 88.849L238.686 123.153L184.1 159.09L3.7258 98.6501Z" fill="url(#paint3_linear_3_3)" stroke="#011929" stroke-width="6" stroke-linejoin="round"/>
<path opacity="0.97" d="M231.16 27.6782L231.067 93.241L201.572 110.728L130.294 88.4905L231.16 27.6782Z" fill="url(#paint4_linear_3_3)" stroke="#011929" stroke-width="6" stroke-linejoin="round"/>
<path opacity="0.88" d="M186.881 229.472L110.935 203.989L47.7339 244.929L124.393 271.555L186.881 229.472Z" fill="url(#paint5_linear_3_3)" stroke="#011929" stroke-width="6" stroke-linejoin="round"/>
<path opacity="0.99" d="M3.7258 98.6501L184.1 159.09L185.049 227.472L3.84121 167.092L3.7258 98.6501Z" fill="url(#paint6_linear_3_3)" stroke="#011929" stroke-width="6" stroke-linejoin="round"/>
<path d="M45.7339 242.929L46.4502 363.593L122.392 390.956L122.393 269.555L45.7339 242.929Z" fill="url(#paint7_linear_3_3)" stroke="#011929" stroke-width="6" stroke-linejoin="round"/>
<path d="M122.392 390.956L182.531 353.076L183.408 291.52L238.682 253.507L238.686 191.535L122.392 269.555V390.956Z" fill="url(#paint8_linear_3_3)" stroke="#011929" stroke-width="6" stroke-linejoin="round"/>
<defs>
<linearGradient id="paint0_linear_3_3" x1="157.123" y1="34.9757" x2="51.0984" y2="183.338" gradientUnits="userSpaceOnUse">
<stop stop-color="#926FE2"/>
<stop offset="1" stop-color="#62DAB4"/>
</linearGradient>
<linearGradient id="paint1_linear_3_3" x1="219.497" y1="216.862" x2="214.607" y2="163.041" gradientUnits="userSpaceOnUse">
<stop stop-color="#926FE2"/>
<stop offset="1" stop-color="#62DAB4"/>
</linearGradient>
<linearGradient id="paint2_linear_3_3" x1="162.569" y1="196.613" x2="56.5437" y2="344.976" gradientUnits="userSpaceOnUse">
<stop stop-color="#926FE2"/>
<stop offset="1" stop-color="#62DAB4"/>
</linearGradient>
<linearGradient id="paint3_linear_3_3" x1="178.142" y1="223.983" x2="167.904" y2="2.7468" gradientUnits="userSpaceOnUse">
<stop stop-color="#1861FF" stop-opacity="0.3"/>
<stop offset="0.446245" stop-color="#62DAB4"/>
<stop offset="1" stop-color="#FF10D4"/>
</linearGradient>
<linearGradient id="paint4_linear_3_3" x1="139.49" y1="196.994" x2="185.894" y2="16.0684" gradientUnits="userSpaceOnUse">
<stop stop-color="#1861FF" stop-opacity="0.3"/>
<stop offset="0.56922" stop-color="#62DAB4"/>
<stop offset="1" stop-color="#FF10D4"/>
</linearGradient>
<linearGradient id="paint5_linear_3_3" x1="435.294" y1="257.452" x2="10.0013" y2="211.702" gradientUnits="userSpaceOnUse">
<stop stop-color="#1861FF" stop-opacity="0.3"/>
<stop offset="0.654725" stop-color="#62DAB4"/>
<stop offset="1" stop-color="#FF10D4"/>
</linearGradient>
<linearGradient id="paint6_linear_3_3" x1="3.41887" y1="146.426" x2="150.078" y2="249.588" gradientUnits="userSpaceOnUse">
<stop stop-color="#926FE2"/>
<stop offset="1" stop-color="#62DAB4"/>
</linearGradient>
<linearGradient id="paint7_linear_3_3" x1="199.12" y1="299.154" x2="19.637" y2="248.203" gradientUnits="userSpaceOnUse">
<stop stop-color="#1861FF" stop-opacity="0.3"/>
<stop offset="0.50985" stop-color="#62DAB4"/>
<stop offset="1" stop-color="#FF10D4"/>
</linearGradient>
<linearGradient id="paint8_linear_3_3" x1="239.227" y1="223.24" x2="133.202" y2="371.602" gradientUnits="userSpaceOnUse">
<stop stop-color="#926FE2"/>
<stop offset="1" stop-color="#62DAB4"/>
</linearGradient>
</defs>
</svg>
