<svg width="330" height="174" viewBox="0 0 330 174" fill="none" xmlns="http://www.w3.org/2000/svg">
<path d="M194.7 0C183.3 0 173.5 4 165.3 12C157.3 20.2 153.3 30 153.3 41.4V132.6C153.3 144 157.3 153.7 165.3 161.7C173.5 169.9 183.3 174 194.7 174H288.6C300 174 309.7 169.9 317.7 161.7C325.9 153.7 330 144 330 132.6V41.4C330 30 325.9 20.2 317.7 12C309.7 4 300 0 288.6 0H194.7ZM203.1 39.3H280.2C285.8 39.3 288.9 39.6 289.5 40.2C290.3 41 290.7 44.2 290.7 49.8V124.2C290.7 129.8 290.3 132.9 289.5 133.5C288.9 134.3 285.8 134.7 280.2 134.7H203.1C197.5 134.7 194.3 134.3 193.5 133.5C192.9 132.9 192.6 129.8 192.6 124.2V49.8C192.6 44.2 192.9 41 193.5 40.2C194.3 39.6 197.5 39.3 203.1 39.3Z" fill="#011929"/>
<path d="M165.3 12L162.437 9.20671L162.471 9.17136L162.507 9.13687L165.3 12ZM165.3 161.7L162.472 164.528L162.472 164.528L165.3 161.7ZM317.7 161.7L314.837 158.907L314.871 158.871L314.907 158.837L317.7 161.7ZM317.7 12L320.528 9.17157L320.528 9.17157L317.7 12ZM289.5 40.2L286.672 43.0284L286.672 43.0284L289.5 40.2ZM289.5 133.5L286.3 131.1L286.643 130.643L287.1 130.3L289.5 133.5ZM193.5 40.2L190.3 37.8L190.643 37.3429L191.1 37L193.5 40.2ZM194.7 4C184.35 4 175.55 7.588 168.093 14.8631L162.507 9.13687C171.45 0.412001 182.251 -4 194.7 -4V4ZM168.163 14.7933C160.888 22.2503 157.3 31.0495 157.3 41.4H149.3C149.3 28.9505 153.712 18.1497 162.437 9.20671L168.163 14.7933ZM157.3 41.4V132.6H149.3V41.4H157.3ZM157.3 132.6C157.3 142.948 160.885 151.628 168.128 158.872L162.472 164.528C153.715 155.772 149.3 145.052 149.3 132.6H157.3ZM168.128 158.872C175.593 166.336 184.381 170 194.7 170V178C182.219 178 171.407 173.464 162.472 164.528L168.128 158.872ZM194.7 170H288.6V178H194.7V170ZM288.6 170C298.916 170 307.585 166.339 314.837 158.907L320.563 164.493C311.815 173.461 301.084 178 288.6 178V170ZM314.907 158.837C322.339 151.585 326 142.916 326 132.6H334C334 145.084 329.461 155.815 320.493 164.563L314.907 158.837ZM326 132.6V41.4H334V132.6H326ZM326 41.4C326 31.0812 322.336 22.2928 314.872 14.8284L320.528 9.17157C329.464 18.1072 334 28.9188 334 41.4H326ZM314.872 14.8284C307.628 7.58498 298.948 4 288.6 4V-4C301.052 -4 311.772 0.415017 320.528 9.17157L314.872 14.8284ZM288.6 4H194.7V-4H288.6V4ZM203.1 35.3H280.2V43.3H203.1V35.3ZM280.2 35.3C283.045 35.3 285.37 35.3751 287.11 35.5436C287.972 35.627 288.801 35.7432 289.527 35.9196C290.017 36.0388 291.321 36.3641 292.328 37.3716L286.672 43.0284C287.102 43.4591 287.504 43.6323 287.582 43.6656C287.699 43.7157 287.735 43.717 287.636 43.6929C287.436 43.6443 287.028 43.573 286.34 43.5064C284.981 43.3749 282.955 43.3 280.2 43.3V35.3ZM292.328 37.3716C293.244 38.2871 293.652 39.4186 293.856 40.1006C294.095 40.8962 294.255 41.788 294.369 42.7039C294.599 44.5453 294.7 46.9357 294.7 49.8H286.7C286.7 47.0643 286.601 45.0547 286.431 43.6961C286.345 43.012 286.255 42.6038 286.194 42.3994C286.098 42.0814 286.156 42.5129 286.672 43.0284L292.328 37.3716ZM294.7 49.8V124.2H286.7V49.8H294.7ZM294.7 124.2C294.7 127.06 294.6 129.434 294.367 131.237C294.252 132.129 294.088 133.02 293.83 133.815C293.628 134.438 293.14 135.77 291.9 136.7L287.1 130.3C286.26 130.93 286.122 131.65 286.22 131.347C286.262 131.217 286.348 130.871 286.433 130.213C286.6 128.916 286.7 126.94 286.7 124.2H294.7ZM292.7 135.9C291.77 137.14 290.438 137.628 289.815 137.83C289.02 138.088 288.129 138.252 287.237 138.367C285.434 138.6 283.06 138.7 280.2 138.7V130.7C282.94 130.7 284.916 130.6 286.213 130.433C286.871 130.348 287.217 130.262 287.347 130.22C287.65 130.122 286.93 130.26 286.3 131.1L292.7 135.9ZM280.2 138.7H203.1V130.7H280.2V138.7ZM203.1 138.7C200.236 138.7 197.845 138.599 196.004 138.369C195.088 138.255 194.196 138.095 193.401 137.856C192.719 137.652 191.587 137.244 190.672 136.328L196.328 130.672C195.813 130.156 195.381 130.098 195.699 130.194C195.904 130.255 196.312 130.345 196.996 130.431C198.355 130.601 200.364 130.7 203.1 130.7V138.7ZM190.672 136.328C189.664 135.321 189.339 134.017 189.22 133.527C189.043 132.801 188.927 131.972 188.844 131.11C188.675 129.37 188.6 127.045 188.6 124.2H196.6C196.6 126.955 196.675 128.981 196.806 130.34C196.873 131.028 196.944 131.436 196.993 131.636C197.017 131.735 197.016 131.699 196.966 131.582C196.932 131.504 196.759 131.102 196.328 130.672L190.672 136.328ZM188.6 124.2V49.8H196.6V124.2H188.6ZM188.6 49.8C188.6 46.9521 188.675 44.6089 188.842 42.8266C188.926 41.9405 189.039 41.1039 189.204 40.372C189.337 39.7795 189.612 38.7179 190.3 37.8L196.7 42.6C197.088 42.0821 197.1 41.7205 197.009 42.128C196.948 42.3961 196.874 42.8595 196.808 43.5734C196.675 44.9911 196.6 47.0479 196.6 49.8H188.6ZM191.1 37C192.018 36.3116 193.08 36.0371 193.672 35.9038C194.404 35.7391 195.241 35.6255 196.127 35.5425C197.909 35.3754 200.252 35.3 203.1 35.3V43.3C200.348 43.3 198.291 43.3746 196.873 43.5075C196.159 43.5745 195.696 43.6484 195.428 43.7087C195.02 43.8004 195.382 43.7884 195.9 43.4L191.1 37Z" fill="#EBECED"/>
<path d="M56.7 0C45.3 0 35.5 4 27.3 12C19.3 20.2 15.3 30 15.3 41.4V132.6C15.3 144 19.3 153.7 27.3 161.7C35.5 169.9 45.3 174 56.7 174H150.6C162 174 171.7 169.9 179.7 161.7C187.9 153.7 192 144 192 132.6V41.4C192 30 187.9 20.2 179.7 12C171.7 4 162 0 150.6 0H56.7ZM65.1 39.3H142.2C147.8 39.3 150.9 39.6 151.5 40.2C152.3 41 152.7 44.2 152.7 49.8V124.2C152.7 129.8 152.3 132.9 151.5 133.5C150.9 134.3 147.8 134.7 142.2 134.7H65.1C59.5 134.7 56.3 134.3 55.5 133.5C54.9 132.9 54.6 129.8 54.6 124.2V49.8C54.6 44.2 54.9 41 55.5 40.2C56.3 39.6 59.5 39.3 65.1 39.3Z" fill="#011929"/>
<path d="M27.3 12L24.4369 9.20671L24.4714 9.17136L24.5067 9.13687L27.3 12ZM27.3 161.7L24.4716 164.528L24.4716 164.528L27.3 161.7ZM179.7 161.7L176.837 158.907L176.871 158.871L176.907 158.837L179.7 161.7ZM179.7 12L182.528 9.17157L182.528 9.17157L179.7 12ZM151.5 40.2L148.672 43.0284L148.672 43.0284L151.5 40.2ZM151.5 133.5L148.3 131.1L148.643 130.643L149.1 130.3L151.5 133.5ZM55.5 40.2L52.3 37.8L52.6429 37.3429L53.1 37L55.5 40.2ZM56.7 4C46.3495 4 37.5503 7.588 30.0933 14.8631L24.5067 9.13687C33.4497 0.412001 44.2505 -4 56.7 -4V4ZM30.1631 14.7933C22.888 22.2503 19.3 31.0495 19.3 41.4H11.3C11.3 28.9505 15.712 18.1497 24.4369 9.20671L30.1631 14.7933ZM19.3 41.4V132.6H11.3V41.4H19.3ZM19.3 132.6C19.3 142.948 22.885 151.628 30.1284 158.872L24.4716 164.528C15.715 155.772 11.3 145.052 11.3 132.6H19.3ZM30.1284 158.872C37.5928 166.336 46.3812 170 56.7 170V178C44.2188 178 33.4072 173.464 24.4716 164.528L30.1284 158.872ZM56.7 170H150.6V178H56.7V170ZM150.6 170C160.916 170 169.585 166.339 176.837 158.907L182.563 164.493C173.815 173.461 163.084 178 150.6 178V170ZM176.907 158.837C184.339 151.585 188 142.916 188 132.6H196C196 145.084 191.461 155.815 182.493 164.563L176.907 158.837ZM188 132.6V41.4H196V132.6H188ZM188 41.4C188 31.0812 184.336 22.2928 176.872 14.8284L182.528 9.17157C191.464 18.1072 196 28.9188 196 41.4H188ZM176.872 14.8284C169.628 7.58498 160.948 4 150.6 4V-4C163.052 -4 173.772 0.415017 182.528 9.17157L176.872 14.8284ZM150.6 4H56.7V-4H150.6V4ZM65.1 35.3H142.2V43.3H65.1V35.3ZM142.2 35.3C145.045 35.3 147.37 35.3751 149.11 35.5436C149.972 35.627 150.801 35.7432 151.527 35.9196C152.017 36.0388 153.321 36.3641 154.328 37.3716L148.672 43.0284C149.102 43.4591 149.504 43.6323 149.582 43.6656C149.699 43.7157 149.735 43.717 149.636 43.6929C149.436 43.6443 149.028 43.573 148.34 43.5064C146.981 43.3749 144.955 43.3 142.2 43.3V35.3ZM154.328 37.3716C155.244 38.2871 155.652 39.4186 155.856 40.1006C156.095 40.8962 156.255 41.788 156.369 42.7039C156.599 44.5453 156.7 46.9357 156.7 49.8H148.7C148.7 47.0643 148.601 45.0547 148.431 43.6961C148.345 43.012 148.255 42.6038 148.194 42.3994C148.098 42.0814 148.156 42.5129 148.672 43.0284L154.328 37.3716ZM156.7 49.8V124.2H148.7V49.8H156.7ZM156.7 124.2C156.7 127.06 156.6 129.434 156.367 131.237C156.252 132.129 156.088 133.02 155.83 133.815C155.628 134.438 155.14 135.77 153.9 136.7L149.1 130.3C148.26 130.93 148.122 131.65 148.22 131.347C148.262 131.217 148.348 130.871 148.433 130.213C148.6 128.916 148.7 126.94 148.7 124.2H156.7ZM154.7 135.9C153.77 137.14 152.438 137.628 151.815 137.83C151.02 138.088 150.129 138.252 149.237 138.367C147.434 138.6 145.06 138.7 142.2 138.7V130.7C144.94 130.7 146.916 130.6 148.213 130.433C148.871 130.348 149.217 130.262 149.347 130.22C149.65 130.122 148.93 130.26 148.3 131.1L154.7 135.9ZM142.2 138.7H65.1V130.7H142.2V138.7ZM65.1 138.7C62.2357 138.7 59.8453 138.599 58.0039 138.369C57.088 138.255 56.1962 138.095 55.4006 137.856C54.7186 137.652 53.5871 137.244 52.6716 136.328L58.3284 130.672C57.8129 130.156 57.3814 130.098 57.6994 130.194C57.9038 130.255 58.312 130.345 58.9961 130.431C60.3547 130.601 62.3643 130.7 65.1 130.7V138.7ZM52.6716 136.328C51.6641 135.321 51.3388 134.017 51.2196 133.527C51.0432 132.801 50.927 131.972 50.8436 131.11C50.6751 129.37 50.6 127.045 50.6 124.2H58.6C58.6 126.955 58.6749 128.981 58.8064 130.34C58.873 131.028 58.9443 131.436 58.9929 131.636C59.017 131.735 59.0157 131.699 58.9656 131.582C58.9323 131.504 58.7591 131.102 58.3284 130.672L52.6716 136.328ZM50.6 124.2V49.8H58.6V124.2H50.6ZM50.6 49.8C50.6 46.9521 50.6754 44.6089 50.8425 42.8266C50.9255 41.9405 51.0391 41.1039 51.2038 40.372C51.3371 39.7795 51.6116 38.7179 52.3 37.8L58.7 42.6C59.0884 42.0821 59.1004 41.7205 59.0087 42.128C58.9484 42.3961 58.8745 42.8595 58.8075 43.5734C58.6746 44.9911 58.6 47.0479 58.6 49.8H50.6ZM53.1 37C54.0179 36.3116 55.0795 36.0371 55.672 35.9038C56.4039 35.7391 57.2405 35.6255 58.1266 35.5425C59.9089 35.3754 62.2521 35.3 65.1 35.3V43.3C62.3479 43.3 60.2911 43.3746 58.8734 43.5075C58.1595 43.5745 57.6961 43.6484 57.428 43.7087C57.0205 43.8004 57.3821 43.7884 57.9 43.4L53.1 37Z" fill="#EBECED"/>
</svg>
